<svg fill="#000000" viewBox="-20 -20 240.00 240.00" data-name="Layer 1" id="Layer_1" xmlns="http://www.w3.org/2000/svg"><g id="SVGRepo_bgCarrier" stroke-width="0"><path transform="translate(-20, -20), scale(7.5)" d="M16,29.754707992076874C18.21808054578421,30.382734715185784,20.665852988413825,30.98425648353759,22.81731374598487,30.15629786068429C24.977123976596175,29.32512606363033,26.613119412405933,27.35461416291894,27.633767900526394,25.277620313104116C28.600644106182003,23.310051697608376,28.208704811695107,21.011955680968278,28.384735673704213,18.826735099569884C28.53950806790332,16.905413932496927,28.603574411364797,15.048679006978137,28.613034106491654,13.121157272932885C28.624712668218528,10.74151593681567,29.84106099207176,8.002405112481036,28.44732426147877,6.073590138680361C27.07246984064648,4.170906701063629,24.203048884931075,4.108114839982419,21.876200635742602,3.7979436493285235C19.899204381351336,3.5344080782586453,17.974151964666206,4.698407866979785,16,4.414349409086363C13.602214588735126,4.069334821317071,11.64331230316384,1.613916162302963,9.248806588570334,1.9810024287681074C6.936289533007814,2.3355195413770953,4.918034177566509,4.219481821666211,3.8145441754522977,6.282423248521113C2.7257479202926707,8.317895156621645,3.4499436151280904,10.79786485243218,3.3003860674870715,13.101395992629692C3.1718747554887723,15.080766567535573,2.41981562826495,17.069689563440974,2.9908473337470056,18.969254203417464C3.5537580236486033,20.84180389152834,5.073007393524004,22.229442664856805,6.45900371010665,23.60869064461569C7.74602986153471,24.889450339295703,9.29230873569039,25.77574895765804,10.818728261491366,26.759021626468723C12.517157136209788,27.853097445207467,14.056104685422687,29.204314000839226,16,29.754707992076874" fill="#ff0000" strokewidth="0"></path></g><g id="SVGRepo_tracerCarrier" stroke-linecap="round" stroke-linejoin="round"></g><g id="SVGRepo_iconCarrier"><title></title><path d="M100,15a85,85,0,1,0,85,85A84.93,84.93,0,0,0,100,15Zm0,150a65,65,0,1,1,65-65A64.87,64.87,0,0,1,100,165Z"></path><path d="M128.5,74a9.67,9.67,0,0,0-14,0L100,88.5l-14-14a9.9,9.9,0,0,0-14,14l14,14-14,14a9.9,9.9,0,0,0,14,14l14-14,14,14a9.9,9.9,0,0,0,14-14l-14-14,14-14A10.77,10.77,0,0,0,128.5,74Z"></path></g></svg>