<svg viewBox="-2.4 -2.4 28.80 28.80" xmlns="http://www.w3.org/2000/svg" fill="#00ff04" stroke="#00ff04" transform="matrix(1, 0, 0, 1, 0, 0)rotate(0)"><g id="SVGRepo_bgCarrier" stroke-width="0"><path transform="translate(-2.4, -2.4), scale(0.8999999999999999)" d="M16,31.6149240994924C18.716848860939496,32.10767770088099,19.940581009739713,27.912071225091,21.605815456297837,25.709557188162762C22.753164927486296,24.192021131436366,23.09888027907389,22.283076647101147,24.21840150991409,20.74489632405733C25.517101608109424,18.960530935041962,27.79429692775069,18.024620847337715,28.672643221130496,16C29.750191106934935,13.516212079395661,30.99071315034481,10.46986996250807,29.71117493295371,8.083849461553132C28.439211854885976,5.711954711183426,25.259619994708654,4.721378721257161,22.57009392231703,4.620263516047421C20.1298095981004,4.528518783491674,18.423073035766226,7.264849597405151,16,7.568365235077708C14.029250985082715,7.8152224841684435,12.27059412454557,5.801986314880124,10.316105390751837,6.155205751915322C8.171635398373553,6.542759013466469,5.660918445003281,7.5449079398881125,4.877534156938596,9.578441351456073C4.06941283111122,11.676187938549832,6.477595622986267,13.752448528682198,6.523565229224532,15.999999999999998C6.568105755144035,18.17768070591648,3.9801598153058038,20.4262288799055,5.137151197810585,22.271668680110253C6.3113244085748015,24.144514068800547,9.781050924402475,22.42742745728932,11.456914039524758,23.86885570669596C13.765635786624483,25.8546126078771,13.00365338367555,31.07147812153254,16,31.6149240994924" fill="#00ff04" strokewidth="0"></path></g><g id="SVGRepo_tracerCarrier" stroke-linecap="round" stroke-linejoin="round"></g><g id="SVGRepo_iconCarrier"> <title></title> <g id="Complete"> <g id="edit"> <g> <path d="M20,16v4a2,2,0,0,1-2,2H4a2,2,0,0,1-2-2V6A2,2,0,0,1,4,4H8" fill="none" stroke="#000000" stroke-linecap="round" stroke-linejoin="round" stroke-width="2"></path> <polygon fill="none" points="12.5 15.8 22 6.2 17.8 2 8.3 11.5 8 16 12.5 15.8" stroke="#000000" stroke-linecap="round" stroke-linejoin="round" stroke-width="2"></polygon> </g> </g> </g> </g></svg>